<svg width="24" height="24" viewBox="0 0 24 24" fill="none" xmlns="http://www.w3.org/2000/svg">
<path d="M17.3 9.30001C17.4833 9.48335 17.575 9.71668 17.575 10C17.575 10.2833 17.4833 10.5167 17.3 10.7L12.7 15.3C12.6 15.4 12.4916 15.471 12.375 15.513C12.2583 15.5543 12.1333 15.575 12 15.575C11.8666 15.575 11.7373 15.55 11.612 15.5C11.4873 15.45 11.3833 15.3833 11.3 15.3L6.69995 10.7C6.51662 10.5167 6.42495 10.2833 6.42495 10C6.42495 9.71668 6.51662 9.48335 6.69995 9.30001C6.88329 9.11668 7.11662 9.02501 7.39995 9.02501C7.68328 9.02501 7.91662 9.11668 8.09995 9.30001L12 13.2L15.9 9.30001C16.0833 9.11668 16.3166 9.02501 16.6 9.02501C16.8833 9.02501 17.1166 9.11668 17.3 9.30001Z" fill="#F8F8F8"/>
</svg>
